<svg width="20" height="20" viewBox="0 0 20 20" fill="none" xmlns="http://www.w3.org/2000/svg">
<path d="M15.8333 8.33317H16.6667C16.8877 8.33317 17.0996 8.42097 17.2559 8.57725C17.4122 8.73353 17.5 8.94549 17.5 9.1665V17.4998C17.5 17.7209 17.4122 17.9328 17.2559 18.0891C17.0996 18.2454 16.8877 18.3332 16.6667 18.3332H3.33333C3.11232 18.3332 2.90036 18.2454 2.74408 18.0891C2.5878 17.9328 2.5 17.7209 2.5 17.4998V9.1665C2.5 8.94549 2.5878 8.73353 2.74408 8.57725C2.90036 8.42097 3.11232 8.33317 3.33333 8.33317H4.16667V7.49984C4.16667 6.73379 4.31755 5.97525 4.6107 5.26752C4.90385 4.55978 5.33354 3.91672 5.87521 3.37505C6.41689 2.83337 7.05995 2.40369 7.76768 2.11054C8.47541 1.81739 9.23396 1.6665 10 1.6665C10.766 1.6665 11.5246 1.81739 12.2323 2.11054C12.9401 2.40369 13.5831 2.83337 14.1248 3.37505C14.6665 3.91672 15.0961 4.55978 15.3893 5.26752C15.6824 5.97525 15.8333 6.73379 15.8333 7.49984V8.33317ZM14.1667 8.33317V7.49984C14.1667 6.39477 13.7277 5.33496 12.9463 4.55356C12.1649 3.77216 11.1051 3.33317 10 3.33317C8.89493 3.33317 7.83512 3.77216 7.05372 4.55356C6.27232 5.33496 5.83333 6.39477 5.83333 7.49984V8.33317H14.1667ZM9.16667 11.6665V14.9998H10.8333V11.6665H9.16667Z" fill="#414552"/>
</svg>
